<svg xmlns="http://www.w3.org/2000/svg" xmlns:xlink="http://www.w3.org/1999/xlink" width="41" height="55" viewBox="0 0 41 55"><defs><path id="a" d="M795.39 882.14l-3.66-5.2 5.87-4.9v8.99zm13.96-7.9a4.28 4.28 0 0 1-4.15-3.3h8.3a4.27 4.27 0 0 1-4.15 3.3zm13.97 7.9l-2.21-1.11v-8.99l5.86 4.9zm-17.84 15.51h-5.93v-26.7h3.67a6.22 6.22 0 0 0 12.27 0h3.67v14.86a.97.97 0 0 0 1.94 0v-2.62l2.09 1.05a.97.97 0 0 0 1.23-.31l4.66-6.6a.97.97 0 0 0-.18-1.3l-8.15-6.8a.97.97 0 0 0-.62-.23h-21.55a.97.97 0 0 0-.63.23l-8.15 6.8a.97.97 0 0 0-.17 1.3l4.66 6.6a.97.97 0 0 0 1.23.3l2.08-1.04v15.43c0 .54.44.97.98.97h6.9a.97.97 0 1 0 0-1.94z"/><path id="b" d="M821.57 922.12l-1.32-23.74a.97.97 0 0 0-.97-.92h-1.82c-.52 0-.94.4-.97.92l-1.32 23.74h-5.59v-28.15h17.58v28.15zm-8.93-32.27v2.17h-3.06v-2.17zm1.94 2.17v-2.17h7.59v2.17zm12.58 0h-3.06v-2.17h3.06zm.97-4.11h-19.52a.97.97 0 0 0-.97.97v34.21c0 .54.43.97.97.97h7.48c.51 0 .94-.4.97-.92l1.31-23.65 1.32 23.65c.02.52.45.92.97.92h7.47c.54 0 .97-.43.97-.97v-34.2a.97.97 0 0 0-.97-.98z"/></defs><use fill="currentColor" xlink:href="#a" transform="translate(-789 -869)"/><use fill="currentColor" xlink:href="#b" transform="translate(-789 -869)"/></svg>