<svg xmlns="http://www.w3.org/2000/svg" xmlns:xlink="http://www.w3.org/1999/xlink" width="33" height="40" viewBox="0 0 33 40"><defs><path id="a" d="M269.34 887.75l-2.8 18.98c-.28 1.44-.91 2.07-1.38 2.53-.45.45-.75.74-.75 2.2v2.36a1.18 1.18 0 0 1-2.35 0v-2.37c0-2.24.65-3.08 1.45-3.86a2 2 0 0 0 .71-1.26l2.79-18.91c.04-.3.12-1.27-.64-1.38-.27-.04-.48 0-.65.14-.23.16-.39.49-.44.89l-1.17 7.8a1.18 1.18 0 0 1-1.84.79c-.12.02-.31-.06-.51-.18a1.17 1.17 0 0 1-.54-1.06l.67-12.44c.06-.65-.4-1.2-1.02-1.25a1.1 1.1 0 0 0-.8.26c-.24.2-.38.46-.4.75l-1.1 11.26c-.05.63-.55 1.09-1.24 1.06-.2-.02-.38-.03-.58-.03a1.18 1.18 0 0 1-1.15-1.15l-.27-14.4c0-.63-.5-1.13-1.1-1.13-.61 0-1.1.5-1.1 1.1l-.28 15.5c-.01.45-.27.85-.68 1.04l-.42.22a1.18 1.18 0 0 1-1.75-.91l-1.21-12.54a1.11 1.11 0 1 0-2.2.18l1.17 16.7a1.17 1.17 0 0 1-2.09.8l-3.65-4.59c-.48-.8-1.32-1.02-1.98-.64a1.37 1.37 0 0 0-.5 1.88l8.3 14.32c.2.33.5.56.87.65.53.12.9.6.9 1.14v1.62a1.18 1.18 0 0 1-2.35 0V913c-.6-.32-1.1-.8-1.45-1.4l-8.3-14.33a3.68 3.68 0 0 1-.38-2.83 3.73 3.73 0 0 1 6.83-.9l1.19 1.49-.92-12.9a3.44 3.44 0 0 1 3.15-3.74 3.42 3.42 0 0 1 3.36 1.82l.03-1.77a3.45 3.45 0 0 1 6.9.02l.04 1.75a3.52 3.52 0 0 1 3.37-1.82 3.47 3.47 0 0 1 3.15 3.76l-.12 2.3.2-.15c.67-.51 1.49-.7 2.39-.59 1.84.26 2.93 1.92 2.64 4.04z"/></defs><use fill="currentColor" xlink:href="#a" transform="translate(-237 -875)"/></svg>