<svg xmlns="http://www.w3.org/2000/svg" xmlns:xlink="http://www.w3.org/1999/xlink" width="110" height="25" viewBox="0 0 110 25"><defs><path id="a" d="M240 1032.5a12.5 12.5 0 1 1 25 0 12.5 12.5 0 0 1-25 0z"/><path id="b" d="M256 1032.5a12.5 12.5 0 1 1 25 0 12.5 12.5 0 0 1-25 0z"/><path id="c" d="M318.72 1039.05h3.89l2.43-14.25h-3.89zm.86-14.24h-4.12l-3.8 9.72-.41-1.46c-.75-1.77-2.89-4.31-5.39-5.91l3.48 11.88h4.12zm-8.5 7.33l-1.3-6.3c-.23-.88-.89-1.14-1.7-1.17h-6.03l-.05.29c4.7 1.14 7.8 3.88 9.08 7.18zm21.8-1.61c-1.36-.66-2.2-1.1-2.18-1.77 0-.6.7-1.23 2.22-1.23 1.27-.02 2.2.26 2.91.55l.35.16.53-3.1c-.77-.28-1.98-.59-3.48-.59-3.84 0-6.55 1.94-6.57 4.7-.03 2.06 1.92 3.2 3.4 3.88 1.52.7 2.02 1.15 2.02 1.77-.01.96-1.21 1.4-2.33 1.4a8.16 8.16 0 0 1-3.66-.75l-.5-.23-.55 3.2c.91.4 2.6.74 4.33.75 4.1 0 6.75-1.9 6.78-4.87.01-1.62-1.02-2.86-3.27-3.87zm9.01 3.47l1.55-3.98.52-1.36.26 1.23.9 4.11zm4.8-9.19h-3c-.94 0-1.63.25-2.04 1.18l-5.78 13.08h4.09l.81-2.15 4.98.01.48 2.14h3.6z"/></defs><use fill="currentColor" xlink:href="#a" opacity=".8" transform="translate(-240 -1020)"/><use fill="currentColor" xlink:href="#b" opacity=".7" transform="translate(-240 -1020)"/><use fill="currentColor" xlink:href="#c" transform="translate(-240 -1020)"/></svg>