<svg xmlns="http://www.w3.org/2000/svg" xmlns:xlink="http://www.w3.org/1999/xlink" width="80" height="22" viewBox="0 0 80 22"><defs><path id="a" d="M326.34 1142.26l-2.24-2.5 2.49-2.25 2.24 2.5zm-1.77-4.32l-2.25-2.5 2.5-2.25 2.25 2.5zm4.68-8.85l1.26-1.12 1.13 1.25-1.26 1.12zm.88 10.48l-1.69-1.87 1.88-1.7 1.69 1.88zm-66.76-7.8h1.4l-1.94 8.51h-1.3l-1.62-5.98h-.09l-1.58 5.98h-1.3l-1.94-8.5h1.34l1.35 6.34h.08l1.56-6.34h1.07l1.66 6.34h.09zm67.48 1.03l1.25-1.12 1.12 1.25-1.25 1.12zm-2.31 2.81l-1.7-1.87 1.88-1.7 1.7 1.88zm-5.51-6.68l2.25 2.5-2.5 2.25-2.25-2.5zm3.96-.65l1.69 1.87-1.88 1.7-1.68-1.88zm4.98 11.51l1.7 1.88-1.88 1.7-1.7-1.88zm-27.8-3.07c-.06-1.27-.68-1.78-1.32-1.78-.73 0-1.3.57-1.43 1.78zm1.13.36v.44h-3.9c0 1.44.58 2.07 1.82 2.07.64 0 1.24-.23 1.9-.62v.91c-.54.32-1.26.56-2.12.56-2.01 0-2.84-1.25-2.84-3.15 0-1.83.92-3.15 2.72-3.15 1.5 0 2.43.97 2.42 2.94zm4.67-2.74h1.28l-2.17 6c-.6 1.66-1.33 2.52-2.7 2.52v-.98c.81 0 1.31-.65 1.6-1.54l-2.3-6H307l1.53 4.42h.08zm23.73 1.05l1.12 1.25-1.25 1.12-1.12-1.24zm-5.02 6.52l2.11 2.42a10.43 10.43 0 0 1-6.56 2.29c-5.79 0-10.5-4.72-10.5-10.51a10.53 10.53 0 0 1 15.76-9.1l-.97.87-1.45-1.5-2.45 2.18-1.45-1.59-4.58 4.12 2.93 3.23-1.15 1.01 2.89 3.23-1.15 1.01 4.13 4.6zm-37.07-4.63c0-1.62-.66-2.3-1.47-2.3-.8 0-1.48.68-1.48 2.3 0 1.65.63 2.3 1.48 2.3s1.47-.65 1.47-2.3zm1.26 0c0 2.06-1.09 3.16-2.73 3.16s-2.74-1.1-2.74-3.15c0-2.1 1.16-3.15 2.74-3.15 1.58 0 2.73 1.05 2.73 3.15zm-8.28-5.5h1.48v8.5h-1.29v-6.16h-.1l-2.45 6.16h-.76l-2.45-6.02h-.1v6.02h-1.08v-8.5h1.45l2.68 6.7h.06zm14.46 4.16v4.34h-1.25v-4.07c0-.94-.47-1.11-1.08-1.11-.48 0-1.1.22-1.46.43v4.75H294v-5.25a6.14 6.14 0 0 1 3.06-.89c1.44 0 1.98.57 1.98 1.8zm-23.8 1.15c0-1.52-.55-2.01-1.35-2.01-.48 0-.82.13-1.3.4v3.9c.38.17.8.2 1.1.2.89 0 1.56-.56 1.56-2.5zm1.27 0c0 2.23-1.08 3.32-2.82 3.32-.64 0-1.62-.2-2.34-.58v-8.36l1.24-.3v3.41c.37-.19.98-.44 1.63-.44 1.48 0 2.29 1.03 2.29 2.94zm-7.39-.37c-.06-1.27-.67-1.78-1.32-1.78-.73 0-1.3.57-1.43 1.78zm1.15.36v.44h-3.92c0 1.44.6 2.07 1.83 2.07a3.7 3.7 0 0 0 1.9-.62v.91a4.2 4.2 0 0 1-2.12.56c-2.01 0-2.85-1.25-2.85-3.15 0-1.83.93-3.15 2.73-3.15 1.5 0 2.43.97 2.43 2.94z"/></defs><use fill="currentColor" xlink:href="#a" transform="translate(-255 -1125)"/></svg>