<svg xmlns="http://www.w3.org/2000/svg" xmlns:xlink="http://www.w3.org/1999/xlink" width="39" height="37" viewBox="0 0 39 37"><defs><path id="a" d="M1120.93 913.55a1.09 1.09 0 0 0 1.04 0c12.28-6.7 18.9-17.71 18.9-24.68a11.88 11.88 0 0 0-22.63-5.01 1.08 1.08 0 1 0 1.96.91 9.72 9.72 0 0 1 18.52 4.1c0 6.33-6.45 16.4-17.27 22.5-10.82-6.1-17.26-16.17-17.26-22.5a9.72 9.72 0 0 1 13.6-8.9 1.08 1.08 0 1 0 .86-1.98 11.88 11.88 0 0 0-16.62 10.88c0 6.97 6.63 17.99 18.9 24.68z"/></defs><use fill="currentColor" xlink:href="#a" transform="translate(-1102 -877)"/></svg>