<svg xmlns="http://www.w3.org/2000/svg" xmlns:xlink="http://www.w3.org/1999/xlink" width="30" height="31" viewBox="0 0 30 31"><defs><path id="a" d="M487.65 1145.14h-5.63l-1.93 9.05h-6.62l-.33 1.5h7.88l1.93-9.06h5.64c5.38 0 9.89-3.32 11.1-8.97.63-2.98-.03-5.19-1.3-6.71.6 1.37.82 3.1.36 5.22-1.2 5.64-5.71 8.97-11.1 8.97zm1.56-10.84a4.93 4.93 0 0 1-4.36 3.72l.92-4.1h3.5c-.02.13-.02.25-.06.38zm-5.64 3.75H481l1.7-7.49h3.85c1.32 0 2.32.8 2.65 1.95-.17-.03-.32-.08-.5-.08h-3.86zm5.88-13.05H476l-5.95 27.32h7.88l1.93-9.05h5.64c5.38 0 9.89-3.32 11.1-8.97 1.36-6.4-3.22-9.3-7.16-9.3z"/></defs><use fill="currentColor" xlink:href="#a" transform="translate(-470 -1125)"/></svg>