<svg xmlns="http://www.w3.org/2000/svg" xmlns:xlink="http://www.w3.org/1999/xlink" width="40" height="33" viewBox="0 0 40 33"><defs><path id="a" d="M537.4 893.15v-9.5h-31.72c-.64 0-1.3-.32-1.3-1.03 0-.7.59-1.27 1.3-1.27h33.97v11.8zm2.26 12.59h-2.27v-3.18h2.27zm-11.35-5.53c-.73 0-1.32-.53-1.32-1.18v-2.35c0-.65.6-1.18 1.32-1.18h11.34v4.7zm-23.96 8.15V885.8c.06.01.13 0 .19.03.33.1.69.16 1.06.16h29.45v7.15h-6.73a3.61 3.61 0 0 0-3.68 3.53v2.35a3.61 3.61 0 0 0 3.68 3.53h6.72v7.06h-29.4c-.7 0-1.29-.57-1.29-1.26zm-2.32-25.74H502v25.74c0 2 1.64 3.62 3.65 3.62h31.74v-3.9H542V879h-36.32c-2 0-3.65 1.62-3.65 3.62z"/></defs><use fill="currentColor" xlink:href="#a" transform="translate(-502 -879)"/></svg>